<?xml version="1.0" standalone="no"?><!DOCTYPE svg PUBLIC "-//W3C//DTD SVG 1.1//EN" "http://www.w3.org/Graphics/SVG/1.1/DTD/svg11.dtd"><svg t="1750779677496" class="icon" viewBox="0 0 1024 1024" version="1.1" xmlns="http://www.w3.org/2000/svg" p-id="3556" xmlns:xlink="http://www.w3.org/1999/xlink" width="200" height="200"><path d="M737 480H544v-193c0-17.6-14.4-32-32-32s-32 14.4-32 32V480h-193c-17.6 0-32 14.4-32 32 0 8.8 3.6 16.8 9.4 22.6 5.8 5.8 13.8 9.4 22.6 9.4H480v193c0 8.8 3.6 16.8 9.4 22.6 5.8 5.8 13.8 9.4 22.6 9.4 17.6 0 32-14.4 32-32V544h193c17.6 0 32-14.4 32-32s-14.4-32-32-32z" p-id="3557"></path></svg>