<?xml version="1.0" standalone="no"?><!DOCTYPE svg PUBLIC "-//W3C//DTD SVG 1.1//EN" "http://www.w3.org/Graphics/SVG/1.1/DTD/svg11.dtd"><svg t="1750773931860" class="icon" viewBox="0 0 1024 1024" version="1.1" xmlns="http://www.w3.org/2000/svg" p-id="6171" xmlns:xlink="http://www.w3.org/1999/xlink" width="200" height="200"><path d="M707.84 256l210.816 210.752a64 64 0 0 1 0 90.496L707.84 768A48 48 0 0 1 640 700.16L828.096 512 640 323.84A48 48 0 0 1 707.84 256zM384 256a48 48 0 0 1 0 67.84L195.904 512 384 700.16A48 48 0 0 1 316.16 768L105.28 557.248a64 64 0 0 1 0-90.496L316.16 256A48 48 0 0 1 384 256z" fill="#000000" p-id="6172"></path></svg>