<?xml version="1.0" standalone="no"?><!DOCTYPE svg PUBLIC "-//W3C//DTD SVG 1.1//EN" "http://www.w3.org/Graphics/SVG/1.1/DTD/svg11.dtd"><svg t="1750845639120" class="icon" viewBox="0 0 1024 1024" version="1.1" xmlns="http://www.w3.org/2000/svg" p-id="5117" xmlns:xlink="http://www.w3.org/1999/xlink" width="200" height="200"><path d="M757.802667 840.96c-0.298667 34.56-15.232 69.034667-73.941334 68.992-132.266667-0.128-503.168 0.469333-567.210666 0C44.970667 909.44 42.666667 874.112 42.666667 840.96c0-159.829333 109.013333-302.976 255.36-344.192-64.426667-34.432-96.682667-98.474667-96.682667-172.586667C201.386667 216.021333 290.56 128 400.213333 128c109.568 0 198.741333 88.021333 198.741334 196.181333 0 74.154667-35.370667 138.154667-99.754667 172.586667 146.474667 41.173333 260.266667 185.813333 258.645333 344.192z" p-id="5118"></path><path d="M638.72 468.48c-12.629333 14.165333-16.128 18.048 18.133333 38.528 26.752 16 144 154.282667 171.776 259.925333 11.264 42.965333 8.96 63.957333 43.648 64.682667 11.392 0.256 15.658667 0.213333 21.376 0.128 4.224-0.085333 9.216-0.128 18.346667-0.128 43.221333 0.768 69.333333-28.458667 69.333333-64.682667 0-111.914667-83.242667-245.504-195.413333-278.101333a737.450667 737.450667 0 0 0-25.045333-6.144 150.314667 150.314667 0 0 0 67.669333-125.354667c0-83.328-68.394667-148.266667-152.704-150.912-42.410667-1.365333-33.237333 19.925333-22.144 42.965334 14.208 29.397333 22.186667 73.130667 22.186667 107.946666 0 69.717333-23.722667 96.170667-37.12 111.146667z" p-id="5119"></path></svg>