<svg width="662" height="420" viewBox="0 0 662 420" fill="none" xmlns="http://www.w3.org/2000/svg">
<path d="M331 0C405.325 0 465.824 59.187 467.94 133H468V283C468 314.48 493.52 340 525 340C556.48 340 582 314.48 582 283V173C582 150.909 599.909 133 622 133C644.091 133 662 150.909 662 173V283C662 358.663 600.663 420 525 420C449.337 420 388 358.663 388 283V137C388 105.52 362.48 80 331 80C299.52 80 274 105.52 274 137V293C274 315.091 256.091 333 234 333C211.909 333 194 315.091 194 293V137L193.995 136.264C193.601 105.123 168.234 80 137 80C105.52 80 80 105.52 80 137V293C80 315.091 62.0914 333 40 333C17.9086 333 3.22172e-07 315.091 0 293V133H0.0595703C2.17597 59.187 62.6749 0 137 0C160.51 0 182.637 5.92199 201.971 16.3555C221.447 26.866 246.553 26.866 266.029 16.3555C285.363 5.92199 307.49 0 331 0ZM622 29C644.091 29 662 46.9086 662 69C662 91.0914 644.091 109 622 109C599.909 109 582 91.0914 582 69C582 46.9086 599.909 29 622 29Z" fill="black"/>
</svg>
